{"title":"Dracula Retold.2014.720p.BluRay.x264 . NVEE","uid":11897959,"size":145254484,"categoryP":"video","categoryS":"hd___movies","magnet":"?xt=urn:btih:ee924f3d2693a2185d2bb2c0e2db303f85b6e94b&amp;dn=Dracula+Retold.2014.720p.BluRay.x264+.+NVEE&amp;tr=udp%3A%2F%2Ftracker.openbittorrent.com%3A80&amp;tr=udp%3A%2F%2Fopen.demonii.com%3A1337&amp;tr=udp%3A%2F%2Ftracker.coppersurfer.tk%3A6969&amp;tr=udp%3A%2F%2Fexodus.desync.com%3A6969","seeders":0,"leechers":1,"uploader":".NVEE","files":11,"time":1431221320,"description":"Quick note : \n\nIf you require a torrent release I have posted in the past, not seeding,... \nPlease do not hesitate to inform me in any means you find fit to do so. \nTorrent requests also &quot;Always Welcome.&quot; \n\n \nFULL_INFOs \n\n99.99% &gt;&gt;&gt; SYNCED GUARANTEED \n\n&quot;Totally scrutinized / analyzed to be a verified torrent.&quot; \n___________________________________________ \n\nSource : Blu-ray ~ 720p \n\n \n\nSpoken Language : English \n\nAudio : 2 ~ Channels Only \n\n \nSubs Info : \n\nx10 ~ Multisubs .srt \nAll .srt UTF-8 .idx &amp; .ass subs can be turned On/Off \n_____________________________________ \n--------------------------------------------------------------------------------- \n \nGeneral Metadata \n\nComplete name : Dracula Retold.2014.720p.BluRay.x264 . NVEE.mp4 \nFormat : MPEG-4 \nFormat profile : Base Media \nCodec ID : isom \nFile size : 138 MiB \nDuration : 6mn 55s \nOverall bit rate : 2 795 Kbps \nEncoded date : UTC 2015-05-08 21:13:40 \nTagged date : UTC 2015-05-08 21:13:40 \n\n \nVideo \n\nID : 1 \nFormat : AVC \nFormat/Info : Advanced Video Codec \nFormat profile : High@L4 \nFormat settings, CABAC : Yes \nFormat settings, ReFrames : 5 frames \nCodec ID : avc1 \nCodec ID/Info : Advanced Video Coding \nDuration : 6mn 55s \nBit rate : 2 604 Kbps \nMaximum bit rate : 11.1 Mbps \nWidth : 1 280 pixels \nHeight : 720 pixels \nDisplay aspect ratio : 16:9 \nFrame rate mode : Constant \nFrame rate : 23.976 fps \nColor space : YUV \nChroma subsampling : 4:2:0 \nBit depth : 8 bits \nScan type : Progressive \nBits/(Pixel*Frame) : 0.118 \nStream size : 129 MiB (93%) \nWriting library : x264 core 146 r2538 121396c \nEncoded from Physical Blu-ray / Region A \n\n \nAudio \n\nID : 2 \nFormat : AC-3 \nFormat/Info : Audio Coding 3 \nMode extension : CM (complete main) \nFormat settings, Endianness : Big \nCodec ID : ac-3 \nDuration : 6mn 55s \nSource duration : 6mn 55s \nBit rate mode : Constant \nBit rate : 192 Kbps \nChannel(s) : 2 channels \nChannel positions : Front: L R \nSampling rate : 48.0 KHz \nBit depth : 16 bits \nCompression mode : Lossy \nStream size : 9.51 MiB (7%) \nSource stream size : 9.51 MiB (7%) \nLanguage : English \nEncoded date : UTC 2015-05-08 21:13:42 \nTagged date : UTC 2015-05-08 21:13:43 \nEncoded from Physical Blu-ray 6 Channel audio &quot;Always&quot;. \n\n \n\n \n\n \n\n\n\n\nEnj0y !","torrent":{"xt":"urn:btih:ee924f3d2693a2185d2bb2c0e2db303f85b6e94b","amp;dn":"Dracula+Retold.2014.720p.BluRay.x264+.+NVEE","amp;tr":["udp%3A%2F%2Ftracker.openbittorrent.com%3A80","udp%3A%2F%2Fopen.demonii.com%3A1337","udp%3A%2F%2Ftracker.coppersurfer.tk%3A6969","udp%3A%2F%2Fexodus.desync.com%3A6969"],"infoHash":"ee924f3d2693a2185d2bb2c0e2db303f85b6e94b","infoHashBuffer":{"type":"Buffer","data":[238,146,79,61,38,147,162,24,93,43,178,192,226,219,48,63,133,182,233,75]},"announce":[],"urlList":[]}}